<svg id="Layer_8" data-name="Layer 8" xmlns="http://www.w3.org/2000/svg" viewBox="0 0 553.9 528.54"><defs><style>.cls-1{fill:#fff;}</style></defs><path class="cls-1" d="M66.91,317l9,42.54a6.06,6.06,0,0,1,.48,1.53c7.79,46.37,47.15,49,81.87,51.4,15,1,29.15,2,39.19,6.63,14.73,6.82,22.79,19.84,21,34-2.11,17-19.76,38.09-62.94,46.25a166.71,166.71,0,0,1-30.89,2.86,169.7,169.7,0,0,1-22.81-1.54l2.25,12H270.38l29.2-168Z"/><path class="cls-1" d="M153.27,487.5c36.88-7,51.74-23.72,53.26-35.94,1.1-8.9-4.19-17-14.18-21.59-8-3.72-21.1-4.6-34.95-5.54-33.79-2.3-79.55-5.42-91.53-54.73a5.41,5.41,0,0,1-.38-1.2l-12-57.23A6,6,0,0,1,60,304.08l3.59.42c.13-.18.27-.36.42-.53,33-37.22,90.9-52.08,158.89-40.76,46,7.67,87,26.08,106.25,46.59,3.11-11.32,9.61-22.65,19.06-33.43l-7.53-14.9c-13,8.87-22.29,14.36-23.48,15.06a6,6,0,0,1-6.08-10.35c32-18.82,97.63-65.62,116.9-108,8.1-17.79,11-33.24,8.78-45.48-15.77-5-36.35.55-62.78,17-25.15,15.63-51.34,38.68-72.38,57.21-16.1,14.16-30,26.4-40.07,32.53-24.12,15.21-43.59,19.9-58.42,19.9a61.8,61.8,0,0,1-19.12-2.9c-16.11-5.23-25.57-16.38-29.06-25.07a6,6,0,0,1,11.14-4.47c2.36,5.89,9.44,14.17,21.62,18.12,12.81,4.15,34.91,4.79,67.48-15.76l.09,0c9.17-5.57,22.72-17.5,38.41-31.31,40.68-35.81,95-83.6,137.69-78.56-8.1-11.77-24.19-18.65-47.92-20.43-49.4-3.71-114.32,52-115,52.55a6,6,0,1,1-7.86-9.07,317.1,317.1,0,0,1,41.76-29.71A138.21,138.21,0,0,0,283,57.3c-20.43-27.18-48.29-45-82.79-52.89C121.41-13.68,45.32,25.19,19.3,96.83c-21.64,59.58-1.19,131,11,173.6,1,3.5,1.92,6.71,2.76,9.7,2.62-2.26,5.16-4.28,7.54-6.06a6,6,0,1,1,7.18,9.62c-19.32,14.42-62.18,55.67-43,127,14.67,54.43,67.88,79.46,119.46,79.46A156.36,156.36,0,0,0,153.27,487.5ZM130.93,72.18a62.7,62.7,0,0,1,54.73,93.28,77.73,77.73,0,0,1,19.73,12,6,6,0,0,1-7.64,9.25c-27.58-22.81-52.18-12.84-61.48-7.49-17.46,10-27.73,28.65-25,45.26a6,6,0,0,1-4.94,6.9,6.71,6.71,0,0,1-1,.08,6,6,0,0,1-5.91-5c-1.88-11.34.78-23.3,6.92-33.91A62.7,62.7,0,0,1,130.93,72.18Z"/><path class="cls-1" d="M113.59,182.52a65.93,65.93,0,0,1,11-10,39.17,39.17,0,1,1,37.62-12,61.46,61.46,0,0,1,11.65,1.33,50.69,50.69,0,1,0-60.3,20.73Z"/><path class="cls-1" d="M120.45,112.53c-15.4,0-15.42,23.92,0,23.92S135.87,112.53,120.45,112.53Z"/><path class="cls-1" d="M404.56,270.28c23.75-9.91,59.15-20.93,93-17.13l2.28.28,12.62-32.5c-60.73,4.67-100.74,22.66-123.94,37.32-21.68,13.69-37.41,30.25-44.78,46.56A289.74,289.74,0,0,1,404.56,270.28Z"/><path class="cls-1" d="M533.84,377.57h0C522.3,409.19,470,414.3,448,415c-10.9.36-21,4.59-25.22,10.54-2.56,3.63-3,7.88-1.38,13,1.23,3.82,9.07,14.77,24.36,22.44,12.82,6.42,34.17,12,63.09,2.06,32.91-11.31,41.57-44.1,43.77-57.67,3.83-23.69-1.68-44.33-9.48-51.86Z"/><path class="cls-1" d="M502.39,266c-2-.35-4.07-.65-6.17-.88-50.82-5.71-120.57,26.05-157.32,59.22a6,6,0,0,1-3.4,7.38,6.1,6.1,0,0,1-2.31.46,6,6,0,0,1-5.54-3.69c-7.85-18.82-49.91-43.94-106.7-53.4-29-4.82-99-11-142.51,31.22l228.85,27.18.1,0,.22,0c.2,0,.4.08.6.13h0a6.43,6.43,0,0,1,.77.29l.15.06a5.55,5.55,0,0,1,.72.4l.06.05a4.71,4.71,0,0,1,.61.47l.11.1a5,5,0,0,1,.55.58,1.47,1.47,0,0,1,.1.13,6.42,6.42,0,0,1,.42.6.41.41,0,0,1,0,.09,5.06,5.06,0,0,1,.36.74l.06.15a6.27,6.27,0,0,1,.25.81v0C315.1,350.33,328,351,331.92,351c9.1-.18,19.46-4.74,23.1-13a6.06,6.06,0,0,1,.54-1.4,15.76,15.76,0,0,0,.57-2.2,6,6,0,0,1,4.55-4.8c5.42-1.25,143.78-29.6,185.84-38.22-10.57-13.44-25.2-21.95-43.65-25.32Z"/><path class="cls-1" d="M440.41,471.71c-16.37-8.21-27.69-21-30.4-29.5-2.79-8.68-1.75-16.82,3-23.55,7.69-10.93,22.94-15.24,34.64-15.63,31.45-1,67.66-9.38,75-29.66l0-.08s0,0,0-.05l27.27-70.31c-37.36,7.65-160.16,32.81-183,37.6-.08.26-.18.52-.28.77-3.05,18.62-30.33,134.58-38.06,167.35,30.33-3.72,128.71-15.5,149.42-18l3.8-10.27c-1.18.05-2.35.07-3.49.07A84.16,84.16,0,0,1,440.41,471.71Z"/><path class="cls-1" d="M332.16,363c-8.93.19-16.68-2.43-22.34-7.14L281.6,518.17c2.82,7.71,9.63,10.43,15.34,10.37a18.68,18.68,0,0,0,18-14.37c1-4.2,26-110,36-156A43.4,43.4,0,0,1,332.16,363Z"/></svg>