<?xml version="1.0" encoding="UTF-8"?><!DOCTYPE svg PUBLIC "-//W3C//DTD SVG 1.1//EN" "http://www.w3.org/Graphics/SVG/1.1/DTD/svg11.dtd"><svg xmlns="http://www.w3.org/2000/svg" xmlns:xlink="http://www.w3.org/1999/xlink" version="1.1" width="24" height="24" viewBox="0 0 24 24"><path d="M22,12C22,6.514 17.486,2 12,2C6.514,2 2,6.514 2,12C2,17.486 6.514,22 12,22C17.486,22 22,17.486 22,12M20,12C20,16.389 16.389,20 12,20C7.611,20 4,16.389 4,12C4,7.611 7.611,4 12,4C16.389,4 20,7.611 20,12"/> <path d="M16,12C16,9.806 14.194,8 12,8C9.806,8 8,9.806 8,12C8,14.194 9.806,16 12,16C14.194,16 16,14.194 16,12"/></svg>